HIERARCHY
ROOT Hips
{
  OFFSET 0 0 0
  CHANNELS 6 Xposition Yposition Zposition Zrotation Yrotation Xrotation
  JOINT LeftThigh
  {
    OFFSET 8.409438 0 -5.917753
    CHANNELS 3 Zrotation Yrotation Xrotation
    JOINT LeftLeg
    {
      OFFSET 0 0 -42.358652
      CHANNELS 3 Zrotation Yrotation Xrotation
      JOINT LeftFoot
      {
        OFFSET 0 0 -39.357303
        CHANNELS 3 Zrotation Yrotation Xrotation
      }
    }
  }
  JOINT RightThigh
  {
    OFFSET -8.409438 0 -5.917753
    CHANNELS 3 Zrotation Yrotation Xrotation
    JOINT RightLeg
    {
      OFFSET 0 0 -42.358652
      CHANNELS 3 Zrotation Yrotation Xrotation
      JOINT RightFoot
      {
        OFFSET 0 0 -39.357303
        CHANNELS 3 Zrotation Yrotation Xrotation
      }
    }
  }
  JOINT SpineLow
  {
    OFFSET 0 0 4.719101
    CHANNELS 3 Zrotation Yrotation Xrotation
    JOINT SpineMid
    {
      OFFSET 0 0 12.899191
      CHANNELS 3 Zrotation Yrotation Xrotation
      JOINT Chest
      {
        OFFSET 0 0 12.899191
        CHANNELS 3 Zrotation Yrotation Xrotation
        JOINT LeftShoulder
        {
          OFFSET 7.550562 1.41573 9.438202
          CHANNELS 3 Zrotation Yrotation Xrotation
          JOINT LeftArm
          {
            OFFSET 9.155056 0 4.247191
            CHANNELS 3 Zrotation Yrotation Xrotation
            JOINT LeftForearm
            {
              OFFSET 0 0 25.771955
              CHANNELS 3 Zrotation Yrotation Xrotation
              JOINT LeftHand
              {
                OFFSET 0 0 25.197169
                CHANNELS 3 Zrotation Yrotation Xrotation
              }
            }
          }
        }
        JOINT RightShoulder
        {
          OFFSET -7.550562 1.41573 9.438202
          CHANNELS 3 Zrotation Yrotation Xrotation
          JOINT RightArm
          {
            OFFSET -9.155056 0 4.247191
            CHANNELS 3 Zrotation Yrotation Xrotation
            JOINT RightForearm
            {
              OFFSET 0 0 -25.771955
              CHANNELS 3 Zrotation Yrotation Xrotation
              JOINT RightHand
              {
                OFFSET 0 0 -25.197169
                CHANNELS 3 Zrotation Yrotation Xrotation
              }
            }
          }
        }
        JOINT Neck
        {
          OFFSET 0 0 15.101124
          CHANNELS 3 Zrotation Yrotation Xrotation
          JOINT Head
          {
            OFFSET 0 0 11.325843
            CHANNELS 3 Zrotation Yrotation Xrotation
            End Site
            {
              OFFSET 0 0 14.157303
            }
          }
        }
      }
    }
  }
}
MOTION
Frames: 12
Frame Time: 0.0
0.0  93.25843  0.0  -1.624319  -30.33934  -91.123304  22.319361  -12.214568  3.526433  5.047992  -1.856525  8.174007  6.928708  1.085897  1.518913  1.3971  -0.32125  -8.919247  -8.24514  6.768948  3.431216  3.809093  1.016227  0.138833  1.945084  -1.370425  0.432998  5.297252  -3.777845  1.073483  5.297253  -3.777845  1.073483  -19.57203  23.458033  -9.018464  129.587837  37.136802  -162.239695  34.396649  5.379835  23.845198  102.55627  23.339112  0.22182  10.182628  -4.508925  24.293782  105.840039  41.889063  37.023614  2.148405  -25.69785  -105.810404  95.700009  28.424804  42.162724  -1.605913  7.162287  4.754662  -1.258933  5.359671  3.580271  
0.0  93.25843  0.0  -1.56805  -30.577579  -91.076402  22.151563  -12.128304  3.525069  5.403164  -1.861635  8.215126  6.928414  1.116649  1.484408  1.329239  -0.344376  -9.209858  -8.335071  6.876081  3.658438  4.094856  1.034282  0.145543  1.952841  -1.358631  0.424984  5.319053  -3.745106  1.052062  5.319053  -3.745105  1.052062  -19.385156  23.439357  -8.964651  130.224849  37.237648  -162.017668  33.563558  5.060058  23.853185  102.34343  23.213463  0.12391  10.514206  -4.593597  24.410465  106.174657  41.725224  37.184792  1.29735  -25.299134  -105.337748  95.493406  28.132967  42.181242  -1.491885  7.154325  4.881484  -1.174954  5.35429  3.673908  
0.0  93.25843  0.0  -1.535346  -30.94481  -91.052658  22.190125  -12.079069  3.570269  5.661077  -1.878445  8.20197  6.954827  1.153854  1.477837  1.444961  -0.414292  -9.414656  -8.164258  7.05485  3.963065  4.157701  1.025937  0.09299  2.006225  -1.35233  0.435276  5.464594  -3.729528  1.077667  5.464594  -3.729529  1.077668  -19.246207  23.490758  -8.936473  130.8226  37.45113  -161.743714  32.918904  4.843569  23.913726  102.267217  23.017379  0.007262  10.591005  -4.617653  24.440981  106.306108  41.719169  37.201099  0.990191  -24.953483  -105.082831  95.437888  27.75642  42.35241  -1.473782  7.157033  4.938539  -1.162088  5.356337  3.716433  
0.0  93.25843  0.0  -1.504057  -31.209872  -91.015121  21.901788  -12.030684  3.510787  5.869479  -1.916491  8.173513  6.940129  1.209425  1.476143  1.252783  -0.541566  -9.695382  -8.377994  7.240705  4.158181  4.512174  1.017952  0.128796  2.013801  -1.346871  0.42613  5.485893  -3.713976  1.05268  5.485894  -3.713977  1.05268  -18.882096  23.553485  -8.826267  131.894319  37.616849  -161.389082  32.926546  4.610831  24.352797  102.185121  22.854162  -0.014231  10.700565  -4.652837  24.510442  106.521863  41.580043  37.2411  0.666811  -24.581748  -104.804871  95.314926  27.445908  42.439381  -1.231544  7.158005  5.073185  -0.982229  5.35876  3.814431  
0.0  93.25843  0.0  -1.477038  -31.635895  -91.048293  22.068512  -12.08671  3.638419  5.957272  -1.830749  8.151009  6.932668  1.231887  1.442569  1.428544  -0.693063  -9.858163  -8.041759  7.561856  4.574137  4.493337  0.976381  0.101814  2.080433  -1.340379  0.445392  5.667177  -3.698869  1.102112  5.667177  -3.698869  1.102112  -18.737427  23.55492  -8.797495  132.859795  37.826254  -160.927195  33.004092  4.443365  24.69184  102.126002  22.681933  0.056624  10.718977  -4.68178  24.569956  106.555979  41.586662  37.242519  0.449981  -24.240313  -104.61231  95.260754  27.024975  42.587206  -1.180857  7.118384  5.074654  -0.943957  5.329458  3.81491  
0.0  93.25843  0.0  -1.514202  -31.825714  -90.996833  21.571716  -12.195395  3.53367  5.597284  -1.762359  7.839842  7.449001  1.323077  1.811647  1.362212  -0.949024  -10.110038  -8.326188  7.964712  4.867747  4.863379  0.940371  0.188179  2.107276  -1.341275  0.455672  5.740029  -3.702618  1.128626  5.740029  -3.702618  1.128625  -18.665816  23.488673  -8.864259  135.059479  37.873434  -160.397899  33.745486  4.008707  25.621378  102.301242  22.398237  0.300751  10.442668  -4.680449  24.401049  106.839377  41.376006  37.311626  0.283298  -23.853175  -104.435807  95.186853  26.501857  42.750322  -1.034143  7.094513  5.055533  -0.833637  5.312792  3.798859  
0.0  93.25843  0.0  -1.504485  -32.14231  -91.040258  21.510397  -12.340304  3.646963  5.644633  -1.586742  7.908727  7.511655  1.361262  1.80882  1.480474  -1.203752  -10.314026  -7.964136  8.483376  5.492273  4.769863  0.925211  0.166916  2.160626  -1.337592  0.483914  5.884445  -3.695907  1.203133  5.884445  -3.695907  1.203132  -18.510146  23.429081  -8.863094  136.365628  38.031779  -159.751838  33.599985  3.559382  26.129649  102.382491  22.226107  0.642677  10.466449  -4.712484  24.469974  106.95065  41.365755  37.42427  -0.078359  -23.384671  -104.210985  95.139488  25.761414  42.999244  -1.002728  7.038989  4.942998  -0.808349  5.27157  3.71418  
0.0  93.25843  0.0  -1.592082  -32.273504  -91.032356  20.828351  -12.574959  3.521088  4.985179  -1.378546  7.58137  8.267804  1.410344  2.313993  1.097415  -1.620047  -10.642062  -8.107666  9.05143  5.97297  5.166703  0.919529  0.339439  2.195088  -1.341547  0.517115  5.976808  -3.710281  1.291593  5.976808  -3.710281  1.291593  -18.233514  23.436769  -8.860006  138.610083  38.06523  -159.196683  33.898389  2.702034  27.216987  102.49305  21.906938  0.981275  9.994506  -4.698313  24.177503  107.379954  41.099206  37.559227  -0.317904  -22.840988  -104.021461  95.016225  24.906107  43.245325  -1.000037  6.979988  4.774601  -0.803928  5.227585  3.587989  
0.0  93.25843  0.0  -1.557947  -32.373503  -91.102486  20.373901  -12.758419  3.502658  5.112819  -1.122782  7.920478  8.374217  1.432571  2.358101  0.977593  -1.852892  -10.858854  -7.55187  9.574471  6.767878  4.957707  0.942065  0.367116  2.223678  -1.330593  0.556868  6.052939  -3.684515  1.399621  6.052939  -3.684515  1.399621  -18.070094  23.433109  -8.84442  139.982297  38.147773  -158.559759  33.149189  1.66801  27.81719  102.276538  21.719802  1.379592  10.053162  -4.727597  24.25507  107.530015  41.135859  37.735898  -0.823548  -22.206751  -103.71203  94.87893  23.970215  43.538957  -1.0165  6.923657  4.586228  -0.813682  5.18549  3.447047  
0.0  93.25843  0.0  -1.747937  -32.216066  -91.136239  19.062506  -13.240518  3.160347  4.910222  -0.773141  8.156948  8.859291  1.48019  2.726975  0.585958  -2.214029  -10.993314  -6.287728  10.054711  7.796009  4.235618  0.987411  0.260758  2.229575  -1.351205  0.600317  6.066295  -3.744885  1.516191  6.066295  -3.744885  1.516191  -16.865084  23.855924  -8.453208  140.290724  38.248727  -158.158164  32.071714  0.328157  28.456828  101.991249  21.45354  1.844527  9.286967  -4.651568  23.840863  108.139483  40.789048  37.899352  -1.098053  -21.52973  -103.482997  94.680205  22.924142  43.783661  -1.140762  6.846571  4.392961  -0.904029  5.127076  3.303633  
0.0  93.25843  0.0  -1.639197  -31.759984  -91.219752  17.908915  -13.410341  2.877779  5.225344  -0.449234  8.900858  8.922323  1.486785  2.801343  -0.212108  -2.256655  -11.036198  -5.702735  10.339547  8.341063  4.038269  1.044499  0.288925  2.218383  -1.32591  0.628158  6.034525  -3.678104  1.595206  6.034525  -3.678104  1.595206  -16.944697  23.973047  -8.51738  141.737984  38.091523  -157.609106  30.705872  -1.424073  29.238816  101.39828  21.315011  2.410657  9.262452  -4.740066  23.966822  108.157678  40.870724  38.101231  -1.639016  -20.811799  -103.160421  94.535506  21.78817  44.108087  -1.302388  6.792221  4.225368  -1.022859  5.08549  3.179853  
0.0  93.25843  0.0  -1.701261  -31.278748  -91.470255  17.472258  -13.76787  2.99907  4.657045  -0.138058  9.170226  8.948107  1.473816  2.902954  -1.498535  -2.325138  -10.523094  -3.8249  10.344511  8.967399  3.006958  1.045802  0.018114  2.224095  -1.333741  0.686321  6.046727  -3.704914  1.753165  6.046727  -3.704913  1.753165  -17.094664  24.244595  -8.686635  143.189155  37.797295  -157.315002  29.027557  -3.568882  30.380457  100.5676  21.23099  3.062239  9.214682  -4.845933  24.117024  106.677879  41.948082  37.970883  -1.106258  -20.161719  -103.269889  93.979138  20.643705  43.832528  -1.603577  6.708289  4.063512  -1.246155  5.020874  3.061839  
